<mxfile host="app.diagrams.net" agent="Mozilla/5.0 (Windows NT 10.0; Win64; x64) AppleWebKit/537.36 (KHTML, like Gecko) Chrome/131.0.0.0 Safari/537.36" version="25.0.3">
  <diagram name="Page-1" id="A9XR1jZGHq--YnNvkIuj">
    <mxGraphModel dx="1221" dy="638" grid="1" gridSize="10" guides="1" tooltips="1" connect="1" arrows="1" fold="1" page="1" pageScale="1" pageWidth="850" pageHeight="1100" math="0" shadow="0">
      <root>
        <mxCell id="0" />
        <mxCell id="1" parent="0" />
        <mxCell id="HOEGeLbAy4G5C-rbRLAX-3" value="Mercer/ Darwin&amp;nbsp;&lt;div&gt;Infrastructure&lt;/div&gt;&lt;div&gt;&lt;br&gt;&lt;/div&gt;&lt;div&gt;&lt;br&gt;&lt;/div&gt;&lt;div&gt;&lt;br&gt;&lt;/div&gt;&lt;div&gt;&lt;br&gt;&lt;/div&gt;&lt;div&gt;&lt;br&gt;&lt;/div&gt;&lt;div&gt;&lt;br&gt;&lt;/div&gt;&lt;div&gt;&lt;br&gt;&lt;/div&gt;&lt;div&gt;&lt;br&gt;&lt;/div&gt;&lt;div&gt;&lt;br&gt;&lt;/div&gt;&lt;div&gt;&lt;br&gt;&lt;/div&gt;" style="rounded=1;whiteSpace=wrap;html=1;fillColor=#E6E6E6;" parent="1" vertex="1">
          <mxGeometry x="430" y="210" width="380" height="190" as="geometry" />
        </mxCell>
        <mxCell id="-0u0BnXHOa6PvTaj0j1a-3" style="edgeStyle=orthogonalEdgeStyle;rounded=0;orthogonalLoop=1;jettySize=auto;html=1;endArrow=classic;endFill=1;strokeColor=#7EA6E0;" parent="1" source="-0u0BnXHOa6PvTaj0j1a-1" edge="1">
          <mxGeometry relative="1" as="geometry">
            <mxPoint x="160" y="295" as="targetPoint" />
          </mxGeometry>
        </mxCell>
        <mxCell id="hUukmX3iklJUezbYdp2z-4" style="edgeStyle=orthogonalEdgeStyle;rounded=1;orthogonalLoop=1;jettySize=auto;html=1;entryX=0;entryY=0.5;entryDx=0;entryDy=0;curved=0;strokeColor=#7EA6E0;align=center;verticalAlign=middle;fontFamily=Helvetica;fontSize=11;fontColor=default;labelBackgroundColor=default;endArrow=classic;endFill=1;" edge="1" parent="1" source="-0u0BnXHOa6PvTaj0j1a-1" target="hUukmX3iklJUezbYdp2z-3">
          <mxGeometry relative="1" as="geometry">
            <Array as="points">
              <mxPoint x="80" y="400" />
            </Array>
          </mxGeometry>
        </mxCell>
        <mxCell id="-0u0BnXHOa6PvTaj0j1a-1" value="&lt;font color=&quot;#ffffff&quot;&gt;Workday HRIS&lt;/font&gt;" style="shape=cylinder3;whiteSpace=wrap;html=1;boundedLbl=1;backgroundOutline=1;size=15;fillColor=#fa6800;fontColor=#000000;strokeColor=#FFFFFF;" parent="1" vertex="1">
          <mxGeometry x="30" y="255" width="100" height="80" as="geometry" />
        </mxCell>
        <mxCell id="-0u0BnXHOa6PvTaj0j1a-2" value="&lt;font color=&quot;#ffffff&quot;&gt;Darwin&lt;/font&gt;" style="shape=cylinder3;whiteSpace=wrap;html=1;boundedLbl=1;backgroundOutline=1;size=15;fillColor=#CC0066;fontColor=#000000;strokeColor=#FFFFFF;" parent="1" vertex="1">
          <mxGeometry x="710" y="260" width="80" height="70" as="geometry" />
        </mxCell>
        <mxCell id="-0u0BnXHOa6PvTaj0j1a-4" value="&lt;b&gt;Darwin SFTP&lt;/b&gt;" style="shape=image;html=1;verticalAlign=top;verticalLabelPosition=bottom;labelBackgroundColor=#ffffff;imageAspect=0;aspect=fixed;image=https://cdn2.iconfinder.com/data/icons/whcompare-servers-web-hosting/50/sftp-128.png" parent="1" vertex="1">
          <mxGeometry x="600" y="267.5" width="55" height="55" as="geometry" />
        </mxCell>
        <mxCell id="-0u0BnXHOa6PvTaj0j1a-7" value="" style="shape=image;verticalLabelPosition=bottom;labelBackgroundColor=default;verticalAlign=top;aspect=fixed;imageAspect=0;image=https://cdn-icons-png.flaticon.com/512/9159/9159105.png;" parent="1" vertex="1">
          <mxGeometry x="310" y="275" width="40" height="40" as="geometry" />
        </mxCell>
        <mxCell id="-0u0BnXHOa6PvTaj0j1a-20" style="edgeStyle=orthogonalEdgeStyle;rounded=0;orthogonalLoop=1;jettySize=auto;html=1;strokeColor=#7EA6E0;align=center;verticalAlign=middle;fontFamily=Helvetica;fontSize=11;fontColor=default;labelBackgroundColor=default;endArrow=classic;endFill=1;exitX=1;exitY=0.5;exitDx=0;exitDy=0;" parent="1" source="-0u0BnXHOa6PvTaj0j1a-7" edge="1">
          <mxGeometry relative="1" as="geometry">
            <mxPoint x="430" y="295" as="targetPoint" />
            <mxPoint x="370" y="295" as="sourcePoint" />
          </mxGeometry>
        </mxCell>
        <mxCell id="-0u0BnXHOa6PvTaj0j1a-10" style="edgeStyle=orthogonalEdgeStyle;rounded=0;orthogonalLoop=1;jettySize=auto;html=1;entryX=0;entryY=0.5;entryDx=0;entryDy=0;entryPerimeter=0;strokeColor=#7EA6E0;align=center;verticalAlign=middle;fontFamily=Helvetica;fontSize=11;fontColor=default;labelBackgroundColor=default;endArrow=classic;endFill=1;" parent="1" source="-0u0BnXHOa6PvTaj0j1a-4" target="-0u0BnXHOa6PvTaj0j1a-2" edge="1">
          <mxGeometry relative="1" as="geometry" />
        </mxCell>
        <mxCell id="-0u0BnXHOa6PvTaj0j1a-19" style="edgeStyle=orthogonalEdgeStyle;rounded=0;orthogonalLoop=1;jettySize=auto;html=1;strokeColor=#7EA6E0;align=center;verticalAlign=middle;fontFamily=Helvetica;fontSize=11;fontColor=default;labelBackgroundColor=default;endArrow=classic;endFill=1;entryX=0;entryY=0.5;entryDx=0;entryDy=0;" parent="1" source="-0u0BnXHOa6PvTaj0j1a-12" edge="1" target="-0u0BnXHOa6PvTaj0j1a-7">
          <mxGeometry relative="1" as="geometry">
            <mxPoint x="290" y="292.5" as="targetPoint" />
            <Array as="points">
              <mxPoint x="285" y="293" />
              <mxPoint x="285" y="295" />
            </Array>
          </mxGeometry>
        </mxCell>
        <mxCell id="-0u0BnXHOa6PvTaj0j1a-12" value="" style="verticalLabelPosition=bottom;html=1;verticalAlign=top;align=center;strokeColor=none;fillColor=#00BEF2;shape=mxgraph.azure.cloud_service;" parent="1" vertex="1">
          <mxGeometry x="220" y="275" width="40" height="35" as="geometry" />
        </mxCell>
        <mxCell id="-0u0BnXHOa6PvTaj0j1a-13" value="" style="shape=image;html=1;verticalAlign=top;verticalLabelPosition=bottom;labelBackgroundColor=#ffffff;imageAspect=0;aspect=fixed;image=https://cdn1.iconfinder.com/data/icons/hawcons/32/699265-icon-37-file-xml-128.png" parent="1" vertex="1">
          <mxGeometry x="160" y="275" width="40" height="40" as="geometry" />
        </mxCell>
        <mxCell id="-0u0BnXHOa6PvTaj0j1a-14" value="Connector" style="text;html=1;align=center;verticalAlign=middle;whiteSpace=wrap;rounded=0;" parent="1" vertex="1">
          <mxGeometry x="150" y="300" width="60" height="30" as="geometry" />
        </mxCell>
        <mxCell id="-0u0BnXHOa6PvTaj0j1a-15" value="Cloud Transformaton" style="text;html=1;align=center;verticalAlign=middle;whiteSpace=wrap;rounded=0;" parent="1" vertex="1">
          <mxGeometry x="210" y="315" width="60" height="30" as="geometry" />
        </mxCell>
        <mxCell id="-0u0BnXHOa6PvTaj0j1a-16" style="edgeStyle=orthogonalEdgeStyle;rounded=0;orthogonalLoop=1;jettySize=auto;html=1;endArrow=classic;endFill=1;strokeColor=#7EA6E0;entryX=0.04;entryY=0.72;entryDx=0;entryDy=0;entryPerimeter=0;exitX=0.75;exitY=0;exitDx=0;exitDy=0;" parent="1" source="-0u0BnXHOa6PvTaj0j1a-14" target="-0u0BnXHOa6PvTaj0j1a-12" edge="1">
          <mxGeometry relative="1" as="geometry">
            <mxPoint x="170" y="305" as="targetPoint" />
            <mxPoint x="140" y="305" as="sourcePoint" />
          </mxGeometry>
        </mxCell>
        <mxCell id="HOEGeLbAy4G5C-rbRLAX-2" style="edgeStyle=orthogonalEdgeStyle;rounded=0;orthogonalLoop=1;jettySize=auto;html=1;entryX=0;entryY=0.5;entryDx=0;entryDy=0;" parent="1" source="HOEGeLbAy4G5C-rbRLAX-1" target="-0u0BnXHOa6PvTaj0j1a-4" edge="1">
          <mxGeometry relative="1" as="geometry" />
        </mxCell>
        <mxCell id="HOEGeLbAy4G5C-rbRLAX-1" value="" style="shape=image;verticalLabelPosition=bottom;labelBackgroundColor=default;verticalAlign=top;aspect=fixed;imageAspect=0;image=https://argondigital.com/wp-content/uploads/2023/04/partner-logo-boomi.png;imageBackground=#FFFFCC;" parent="1" vertex="1">
          <mxGeometry x="440" y="270" width="100" height="50" as="geometry" />
        </mxCell>
        <mxCell id="hUukmX3iklJUezbYdp2z-1" value="HRIS DATA" style="text;html=1;align=center;verticalAlign=middle;whiteSpace=wrap;rounded=0;fontStyle=1" vertex="1" parent="1">
          <mxGeometry x="290" y="310" width="80" height="30" as="geometry" />
        </mxCell>
        <mxCell id="hUukmX3iklJUezbYdp2z-2" value="PAYROLL INPUT DATA" style="text;html=1;align=center;verticalAlign=middle;whiteSpace=wrap;rounded=0;fontStyle=1" vertex="1" parent="1">
          <mxGeometry x="300" y="420" width="80" height="30" as="geometry" />
        </mxCell>
        <mxCell id="hUukmX3iklJUezbYdp2z-3" value="" style="shape=image;verticalLabelPosition=bottom;labelBackgroundColor=default;verticalAlign=top;aspect=fixed;imageAspect=0;image=https://cdn-icons-png.flaticon.com/512/9159/9159105.png;" vertex="1" parent="1">
          <mxGeometry x="320" y="380" width="40" height="40" as="geometry" />
        </mxCell>
        <mxCell id="hUukmX3iklJUezbYdp2z-5" style="edgeStyle=orthogonalEdgeStyle;rounded=1;orthogonalLoop=1;jettySize=auto;html=1;entryX=0.003;entryY=0.619;entryDx=0;entryDy=0;entryPerimeter=0;curved=0;strokeColor=#7EA6E0;align=center;verticalAlign=middle;fontFamily=Helvetica;fontSize=11;fontColor=default;labelBackgroundColor=default;endArrow=classic;endFill=1;" edge="1" parent="1" source="hUukmX3iklJUezbYdp2z-3" target="HOEGeLbAy4G5C-rbRLAX-3">
          <mxGeometry relative="1" as="geometry" />
        </mxCell>
      </root>
    </mxGraphModel>
  </diagram>
</mxfile>
